<?xml version="1.0" standalone="no"?>
<!DOCTYPE svg PUBLIC "-//W3C//DTD SVG 20010904//EN"
 "http://www.w3.org/TR/2001/REC-SVG-20010904/DTD/svg10.dtd">
<svg version="1.0" xmlns="http://www.w3.org/2000/svg"
 width="199.000000pt" height="193.000000pt" viewBox="0 0 199.000000 193.000000"
 preserveAspectRatio="xMidYMid meet">

<g transform="translate(0.000000,193.000000) scale(0.100000,-0.100000)"
fill="#000000" stroke="none">
<path d="M600 1440 c0 -5 5 -12 11 -16 8 -5 8 -9 -1 -14 -8 -5 -12 -72 -15
-226 l-3 -219 59 -33 c32 -18 59 -29 59 -25 0 4 4 3 8 -3 13 -19 77 -52 91
-46 8 2 11 0 8 -5 -6 -10 193 -116 202 -107 3 3 0 9 -8 13 -10 7 -10 9 1 13
10 4 12 51 10 239 l-3 234 -92 44 c-51 25 -145 71 -209 103 -65 31 -118 53
-118 48z m20 -160 c0 -11 -2 -20 -4 -20 -2 0 -6 9 -9 20 -3 11 -1 20 4 20 5 0
9 -9 9 -20z m240 -440 c8 -5 11 -10 5 -10 -5 0 -17 5 -25 10 -8 5 -10 10 -5
10 6 0 17 -5 25 -10z"/>
<path d="M360 342 c0 -5 18 -34 40 -65 l41 -57 -42 -60 c-24 -33 -40 -63 -36
-66 12 -12 37 5 64 45 16 22 31 40 36 41 4 0 22 -20 39 -45 18 -25 40 -45 50
-45 10 0 18 2 18 5 0 4 -19 33 -42 65 l-42 60 22 30 c12 16 32 43 44 60 12 16
19 32 16 36 -13 12 -44 -8 -70 -46 -15 -22 -31 -40 -35 -40 -5 1 -23 21 -41
45 -29 40 -62 59 -62 37z"/>
<path d="M610 219 c0 -119 2 -130 18 -127 12 2 18 15 20 46 l3 42 43 0 c32 0
48 6 64 23 24 25 29 75 12 107 -12 22 -67 40 -122 40 l-38 0 0 -131z m124 69
c9 -12 16 -26 16 -30 0 -19 -43 -48 -70 -48 -29 0 -30 1 -30 50 l0 50 34 0
c25 0 39 -7 50 -22z"/>
<path d="M1017 343 c-4 -3 -7 -62 -7 -130 0 -100 3 -123 14 -123 18 0 25 22
25 85 -1 142 -3 135 34 135 33 0 67 -24 67 -47 0 -18 -36 -43 -63 -43 -15 0
-27 -4 -27 -9 0 -19 93 -121 111 -121 26 0 24 5 -17 56 -20 24 -31 44 -25 44
39 0 65 76 41 120 -16 29 -132 54 -153 33z"/>
<path d="M170 215 l0 -125 75 0 c68 0 75 2 75 20 0 18 -7 20 -55 20 l-55 0 0
35 0 35 55 0 c48 0 55 2 55 20 0 18 -7 20 -55 20 l-55 0 0 35 0 35 55 0 c42 0
55 3 55 15 0 12 -15 15 -75 15 l-75 0 0 -125z"/>
<path d="M820 215 l0 -125 75 0 c68 0 75 2 75 20 0 16 -8 19 -57 22 -56 3 -56
3 -57 36 l-1 32 58 0 c50 0 57 2 57 20 0 16 -8 19 -57 22 -57 3 -58 3 -58 33
0 30 1 30 58 33 42 2 57 7 57 17 0 12 -16 15 -75 15 l-75 0 0 -125z"/>
</g>
</svg>
